<?xml version="1.0" encoding="utf-8"?>
<!-- Generator: Adobe Illustrator 23.0.0, SVG Export Plug-In . SVG Version: 6.00 Build 0)  -->
<svg version="1.1" id="Calque_1" xmlns="http://www.w3.org/2000/svg" xmlns:xlink="http://www.w3.org/1999/xlink" x="0px" y="0px"
	 viewBox="0 0 10.6 10.6" style="enable-background:new 0 0 10.6 10.6;" xml:space="preserve">
<style type="text/css">
	.st0{fill:#1D1D1B;}
</style>
<path class="st0" d="M6.4,7.1c0-0.5,0.3-0.8,0.8-0.8S8,6.6,8,7.1S7.7,7.9,7.2,7.9C6.8,7.9,6.4,7.5,6.4,7.1z"/>
<path class="st0" d="M7,5.3c0-0.5,0.3-0.8,0.8-0.8c0.5,0,0.8,0.3,0.8,0.8S8.2,6,7.8,6C7.3,6,7,5.7,7,5.3z"/>
<path class="st0" d="M6.4,3.5c0-0.5,0.3-0.8,0.8-0.8S7.9,3,7.9,3.5S7.6,4.3,7.1,4.3C6.6,4.3,6.4,3.9,6.4,3.5z"/>
<path class="st0" d="M2.8,3.5c0-0.5,0.3-0.8,0.8-0.8s0.8,0.4,0.8,0.8S4.1,4.3,3.6,4.3S2.8,3.9,2.8,3.5z"/>
<path class="st0" d="M2.1,5.3c0-0.5,0.3-0.8,0.8-0.8s0.8,0.4,0.8,0.8S3.4,6.1,2.9,6.1S2.1,5.7,2.1,5.3z"/>
<path class="st0" d="M4.5,3c0-0.5,0.3-0.8,0.8-0.8S6.1,2.5,6.1,3S5.8,3.7,5.3,3.7S4.5,3.3,4.5,3z"/>
<path class="st0" d="M2.8,7c0-0.5,0.3-0.8,0.8-0.8S4.3,6.5,4.3,7S4,7.8,3.5,7.8S2.8,7.3,2.8,7z"/>
<path class="st0" d="M4.5,7.6c0-0.5,0.3-0.8,0.8-0.8s0.8,0.4,0.8,0.8c0,0.4-0.4,0.8-0.8,0.8S4.5,8.1,4.5,7.6z"/>
<path class="st0" d="M6.4,7.1c0-0.5,0.3-0.8,0.8-0.8S8,6.6,8,7.1S7.7,7.9,7.2,7.9C6.8,7.9,6.4,7.5,6.4,7.1z"/>
</svg>
